<svg xmlns="http://www.w3.org/2000/svg" xmlns:xlink="http://www.w3.org/1999/xlink" viewBox="0,0,256,256" width="48px" height="48px" fill-rule="nonzero"><g fill="#504d4d" fill-rule="nonzero" stroke="none" stroke-width="1" stroke-linecap="butt" stroke-linejoin="miter" stroke-miterlimit="10" stroke-dasharray="" stroke-dashoffset="0" font-family="none" font-weight="none" font-size="none" text-anchor="none" style="mix-blend-mode: normal"><path d="M0,256v-256h256v256z" id="bgRectangle"></path></g><g fill="#ffffff" fill-rule="nonzero" stroke="none" stroke-width="1" stroke-linecap="butt" stroke-linejoin="miter" stroke-miterlimit="10" stroke-dasharray="" stroke-dashoffset="0" font-family="none" font-weight="none" font-size="none" text-anchor="none" style="mix-blend-mode: normal"><g transform="translate(256,256) rotate(180) scale(5.33333,5.33333)"><path d="M24,4c-11.02793,0 -20,8.97207 -20,20c0,11.02793 8.97207,20 20,20c11.02793,0 20,-8.97207 20,-20c0,-11.02793 -8.97207,-20 -20,-20zM24,7c9.40662,0 17,7.59339 17,17c0,9.40661 -7.59338,17 -17,17c-9.40661,0 -17,-7.59339 -17,-17c0,-9.40661 7.59339,-17 17,-17zM21.10352,15.95703c-0.71364,0.0091 -1.42692,0.04283 -2.13867,0.10156c-1.89801,0.15662 -3.78463,0.4905 -5.63281,1c-0.53357,0.12713 -0.95522,0.53534 -1.09957,1.06451c-0.14435,0.52917 0.01162,1.09494 0.40673,1.4754c0.39511,0.38046 0.96637,0.51495 1.48971,0.35071c6.66725,-1.838 13.89544,-1.12784 20.13281,2.125c0.47627,0.2582 1.05476,0.23955 1.51341,-0.0488c0.45865,-0.28835 0.7262,-0.80159 0.69994,-1.34271c-0.02625,-0.54112 -0.34223,-1.02605 -0.82664,-1.26865c-4.54166,-2.36851 -9.54942,-3.52071 -14.54492,-3.45703zM21.30859,22.00977c-0.58356,0.00428 -1.16776,0.0285 -1.75,0.07227c-1.55264,0.11672 -3.09608,0.37376 -4.61133,0.77148c-0.53371,0.12195 -0.95861,0.52496 -1.1086,1.05149c-0.14998,0.52653 -0.00123,1.09294 0.38812,1.47783c0.38934,0.38488 0.95743,0.52711 1.4822,0.37108c5.35302,-1.40509 11.12363,-0.82381 16.13281,1.74219c0.47844,0.25806 1.05905,0.2371 1.51765,-0.05479c0.45859,-0.29188 0.7234,-0.80902 0.69217,-1.35172c-0.03122,-0.5427 -0.35359,-1.02605 -0.84263,-1.26342c-3.72541,-1.90838 -7.81545,-2.84635 -11.90039,-2.81641zM21.54688,28.01758c-0.44562,-0.00106 -0.89098,0.01162 -1.33594,0.03906c-1.18656,0.07318 -2.36859,0.24752 -3.53125,0.52344c-0.53399,0.11181 -0.96519,0.5047 -1.12604,1.02603c-0.16085,0.52132 -0.02599,1.08887 0.35218,1.48212c0.37817,0.39324 0.94001,0.55018 1.46722,0.40982c3.97935,-0.94435 8.22372,-0.49904 11.95313,1.33203c0.48114,0.23635 1.05184,0.19802 1.49705,-0.10056c0.44521,-0.29858 0.69728,-0.81202 0.66122,-1.34686c-0.03605,-0.53485 -0.35475,-1.00981 -0.836,-1.24594c-2.86426,-1.4063 -5.98221,-2.11171 -9.10156,-2.11914z"></path></g></g></svg>